Coordinates
version=1
nRows=5
nColumns=63
inDegrees=yes

Units are S.I. units (second, meters, Newtons, ...)
If the header above contains a line with 'inDegrees', this indicates whether rotational values are in degrees (yes) or radians (no).

endheader
time	pelvis_tilt	pelvis_list	pelvis_rotation	pelvis_tx	pelvis_ty	pelvis_tz	hip_flexion_r	hip_adduction_r	hip_rotation_r	knee_angle_r	knee_angle_r_beta	ankle_angle_r	subtalar_angle_r	mtp_angle_r	hip_flexion_l	hip_adduction_l	hip_rotation_l	knee_angle_l	knee_angle_l_beta	ankle_angle_l	subtalar_angle_l	mtp_angle_l	L5_S1_Flex_Ext	L5_S1_Lat_Bending	L5_S1_axial_rotation	L4_L5_Flex_Ext	L4_L5_Lat_Bending	L4_L5_axial_rotation	L3_L4_Flex_Ext	L3_L4_Lat_Bending	L3_L4_axial_rotation	L2_L3_Flex_Ext	L2_L3_Lat_Bending	L2_L3_axial_rotation	L1_L2_Flex_Ext	L1_L2_Lat_Bending	L1_L2_axial_rotation	L1_T12_Flex_Ext	L1_T12_Lat_Bending	L1_T12_axial_rotation	Abs_r3	Abs_r2	Abs_r1	Abs_t1	Abs_t2	neck_flexion	neck_bending	neck_rotation	arm_flex_r	arm_add_r	arm_rot_r	elbow_flex_r	pro_sup_r	wrist_flex_r	wrist_dev_r	arm_flex_l	arm_add_l	arm_rot_l	elbow_flex_l	pro_sup_l	wrist_flex_l	wrist_dev_l
      4.59322034	      7.61492857	     -0.58785483	     89.31868684	      0.15937373	      0.89168005	      0.41974410	      1.83209512	      2.44197744	    -19.44250698	     16.94729614	      0.29578612	     26.07745082	     18.68437204	      0.00000000	      1.94680869	     -6.19186160	    -10.49258738	     15.83862932	      0.27643623	     25.47524975	      2.60883497	      0.00000000	      0.00911988	      0.05052966	      0.91581472	      0.01693654	      0.06720445	      0.97305314	      0.01498306	      0.12285782	      0.97305314	      0.01042312	      0.12285782	      0.80133788	      0.00846872	      0.10304008	      0.74409946	      0.00521110	      0.07827044	      0.68686104	      0.06514242	      0.57160163	      5.09348672	      0.00000000	      0.00000000	      8.37130529	      8.10079165	    -31.50403700	     78.93570464	    -38.52511516	     -4.76712214	    125.45723502	     75.43785126	      1.92190427	     16.95206789	     -1.23873319	    -16.38537233	     42.07886384	     42.25919518	     89.21727913	      9.92777481	     24.57860213
      4.61016949	      7.82310442	     -0.74477272	     89.29703772	      0.15886826	      0.89126815	      0.41916125	      1.92898804	      2.63284749	    -19.46775058	     16.88714762	      0.29473633	     26.07065022	     18.67468443	      0.00000000	      2.06832186	     -6.29522140	     -9.88573405	     15.74357046	      0.27477714	     26.03726379	      1.96869276	      0.00000000	      0.03146306	      0.07013786	      1.19519485	      0.05843005	      0.09328336	      1.26989453	      0.05169066	      0.17053320	      1.26989453	      0.03595913	      0.17053320	      1.04579549	      0.02921660	      0.14302513	      0.97109581	      0.01797799	      0.10864355	      0.89639614	      0.22473748	      0.79341354	      6.64731518	      0.00000000	      0.00000000	      8.20660151	      8.21034962	    -33.85251227	     81.28006277	    -42.49150322	     -2.93944845	    125.45982512	     75.62302352	     -1.20807367	     18.72653837	     -0.14950857	    -16.11240557	     44.22675352	     41.76926525	     89.22196356	     10.13923601	     24.87794877
      4.62711864	      7.93663864	     -0.82275759	     89.27296239	      0.15842561	      0.89093681	      0.41862767	      1.95478720	      2.72723943	    -19.36401605	     16.84190605	      0.29394671	     26.10423121	     18.70704212	      0.00000000	      2.06357035	     -6.27861825	     -9.23374650	     15.52639980	      0.27098680	     26.42898502	      1.18770433	      0.00000000	      0.05003465	      0.08251268	      1.46320741	      0.09291935	      0.10974186	      1.55465787	      0.08220193	      0.20062132	      1.55465787	      0.05718460	      0.20062132	      1.28030648	      0.04646218	      0.16825985	      1.18885602	      0.02858980	      0.12781214	      1.09740556	      0.35739251	      0.93339989	      8.13792066	      0.00000000	      0.00000000	      7.65907637	      8.34702749	    -35.57385205	     84.38389034	    -46.33193921	     -0.00340907	    125.66761140	     75.21329708	     -5.03783963	     22.08367508	      1.31259126	    -15.98258268	     47.46492934	     41.12647175	     89.22066742	     10.79637562	     24.76590798
      4.64406780	      8.06917419	     -0.86102712	     89.21531478	      0.15787501	      0.89076853	      0.41819957	      1.90632854	      2.85126848	    -19.23351791	     16.70136851	      0.29149387	     26.06435011	     18.69526950	      0.00000000	      1.99576439	     -6.23249277	     -8.28878509	     15.24573167	      0.26608821	     26.50509791	     -0.01716697	      0.00000000	      0.07099037	      0.10180964	      1.70683221	      0.13183622	      0.13540683	      1.81350923	      0.11663008	      0.24753997	      1.81350923	      0.08113490	      0.24753997	      1.49347819	      0.06592166	      0.20761022	      1.38680117	      0.04056390	      0.15770314	      1.28012416	      0.50707712	      1.15169105	      9.49288873	      0.00000000	      0.00000000	      6.93102622	      8.48150067	    -36.87113487	     88.14711452	    -49.79587897	      3.74593995	    125.88538197	     71.68920432	     -8.27577941	     25.89866299	      3.11280394	    -15.88821776	     52.11998200	     40.14719477	     89.19156285	     10.80769861	     23.23921177
      4.66101695	      8.44090755	     -0.79553308	     89.16804241	      0.15699858	      0.89029717	      0.41819271	      1.86418714	      3.15577547	    -19.18963985	     16.78052560	      0.29287542	     26.08182244	     18.72626764	      0.00000000	      1.93938692	     -6.52953903	     -7.96719026	     15.21898671	      0.26562143	     26.86641625	     -0.31842379	      0.00000000	      0.05839435	      0.16031445	      1.77751535	      0.10844415	      0.21321822	      1.88861006	      0.09593608	      0.38978856	      1.88861006	      0.06673890	      0.38978856	      1.55532593	      0.05422499	      0.32691323	      1.44423122	      0.03336653	      0.24832708	      1.33313651	      0.41710500	      1.81350913	      9.88600710	      0.00000000	      0.00000000	      6.71055977	      8.15045361	    -37.37475964	     92.94963137	    -51.68756959	      8.17251220	    125.86042100	     66.87550146	     -9.80647047	     30.67470521	      3.30277637	    -15.32035320	     52.16461545	     39.80557421	     89.19560000	     11.10380713	     23.53059906
